# xmcd CD database file
#
# Track frame offsets:
#	150
#	12845
#	26790
#	43976
#	54674
#	66242
#	81689
#	94632
#	105028
#	123849
#	142651
#	155825
#	184212
#	193875
#	204702
#
# Disc length: 2881 seconds
#
# Revision: 0
# Processed by: cddbd v1.5.2PL0 Copyright (c) Steve Scherf et al.
# Submitted via: CDex 1.78
#
DISCID=d40b3f0f
DTITLE=Johnny Cash - Legends
DYEAR=2012
DGENRE=Country
TTITLE0=I Walk The Line
TTITLE1=Don't Take Your Guns To Town
TTITLE2=A Boy Named Sue
TTITLE3=Daddy Sang Bass
TTITLE4=Peace In The Valley
TTITLE5=Darlin' Companion
TTITLE6=Fulsom Prison Blues
TTITLE7=Get Rhythm
TTITLE8=San Quentin
TTITLE9=Sunday Morning Coming Down
TTITLE10=Wanted Man
TTITLE11=Starkville City Jail
TTITLE12=Wreck Of The Old 97
TTITLE13=You Win Again
TTITLE14=Big River
EXTD=YEAR: 2012
EXTT0=
EXTT1=
EXTT2=
EXTT3=
EXTT4=
EXTT5=
EXTT6=
EXTT7=
EXTT8=
EXTT9=
EXTT10=
EXTT11=
EXTT12=
EXTT13=
EXTT14=
PLAYORDER=
